<svg xmlns="http://www.w3.org/2000/svg" xmlns:xlink="http://www.w3.org/1999/xlink" version="1.1" x="0px" y="0px" viewBox="0 0 100 125" style="enable-background:new 0 0 100 100;" xml:space="preserve"><path d="M49.992,0C22.386,0,0,22.379,0,49.992c0,27.606,22.386,49.992,49.992,49.992c27.611,0,49.991-22.386,49.991-49.992  C99.983,22.379,77.604,0,49.992,0z M79.153,70.829h-58.32V43.033l20.395,14.139c2.601,1.776,5.692,2.546,8.765,2.558  c3.058-0.006,6.15-0.781,8.754-2.558l20.407-14.139V70.829z M79.153,34.922l-24.202,16.77c-1.185,0.832-3.064,1.38-4.959,1.373  c-1.91,0.007-3.788-0.541-4.967-1.373L20.833,34.929v-5.773h58.32V34.922z"/><text x="0" y="115" fill="#000000" font-size="5px" font-weight="bold" font-family="'Helvetica Neue', Helvetica, Arial-Unicode, Arial, Sans-serif">Created by Erin Standley</text><text x="0" y="120" fill="#000000" font-size="5px" font-weight="bold" font-family="'Helvetica Neue', Helvetica, Arial-Unicode, Arial, Sans-serif">from the Noun Project</text></svg>
